<?xml version="1.0" encoding="utf-8"?>
<!-- Generator: Adobe Illustrator 19.2.1, SVG Export Plug-In . SVG Version: 6.00 Build 0)  -->
<svg version="1.1" id="layer" xmlns="http://www.w3.org/2000/svg" xmlns:xlink="http://www.w3.org/1999/xlink" x="0px" y="0px"
	 viewBox="0 0 652 652" style="enable-background:new 0 0 652 652;" xml:space="preserve">
<style type="text/css">
	.st0{fill:#010101;}
	.st1{fill:#C12026;}
</style>
<g>
	<path class="st0" d="M604.4,325.7v-66.3h-36.6v74.8c0,0-5,3.9-8.7,4.4c-3.7,0.5-4.1-5-4.1-5v-61c0-11.9-19.9-17.6-19.9-17.6
		l-30,26.3c-1.1-6.9-3.9-10.1-3.9-10.1l-51.7-15.3c-17.4,8-27.2,21.3-32.2,36.6c-5,15.3,0,40.2,0,40.2c-3,3.2-7.3,5.7-10.7,5.9
		c-3.4,0.2-4.3-5-4.3-5v-58.8c0-12.8-19.9-18.3-19.9-18.3l-32,27.7v-43c0-21-20.1-25.4-20.1-25.4h-8.9l-27,23.8
		c18.3,0,19.9,18.8,19.9,18.8v72c0,0-6.9,4.3-11.7,5.9c-4.8,1.6-5.3-9.8-5.3-9.8V261c0,0-19.8-0.4-44.1,0
		c-25.2,0.5-41.6,25.1-44.6,36.8c-3,11.7,0,33.1,0,33.1c-13.5,4.8-16-9.4-16-9.4v-84.4c0-10.7-17.4-15.3-17.4-15.3h-15.1l-21,19.2
		c-0.7-17.4-17.6-19.2-17.6-19.2h-16.5l-20.4,18.7c0-14.6-20.3-18.7-20.3-18.7H50.7l-26.1,23.8c0,0,7.2-0.8,13.1,4.6
		c5.9,5.3,6.2,12.1,6.2,12.1V358h40.4V250h5c7.3,0,9.6,9,9.6,9v98.8h39.8V250.9h5.5c7.2,0,9.5,8.2,9.5,8.2v76.2
		c0,0-1.1,13.6,9.9,20.4c11,6.9,22.6,3,22.6,3l25.6-22.9c13.6,23.9,35.1,22.4,35.1,22.4l15.1-14.2c0,0,7,11.7,13,13.6
		c14.5,4.5,19-1.1,19-1.1l20.6-19.4v20.6h36.1v-65.1h6.2c6.2,0,9.3,8.1,9.3,8.1v39.5c0,0-0.6,6.2,8.4,13.9c9,7.6,24.1,5,24.1,5
		l22.3-20c7.3,10.4,31.7,24.4,47.6,20.2c52-13.8,38.7-72.6,38.7-72.6h8.1c3.5,0,3.4,5.7,3.4,5.7v44.8c0,0,1.8,8.2,8.2,16.2
		c6.4,8,23.8,5.5,23.8,5.5l19-18.1c6.2,17.4,30.9,18.1,30.9,18.1l19.9-19.4C604,341.1,604.4,325.7,604.4,325.7 M261.3,328.9
		c0,0-19.2-3.4-19.2-23.3c0-19.9,19.2-23.3,19.2-23.3V328.9z M471.9,311.9c-2.7,16-14,30.7-14,30.7s-8.2-13.3-5.7-35
		c2.5-21.7,14.4-29.5,14.4-29.5S474.6,295.9,471.9,311.9"/>
	<path class="st1" d="M600.3,320.2v-66.3h-36.6v74.8c0,0-5,3.9-8.7,4.4c-3.7,0.5-4.1-5-4.1-5v-61c0-11.9-19.9-17.6-19.9-17.6
		l-30,26.3c-1.1-6.9-3.9-10.1-3.9-10.1l-51.7-15.3c-17.4,8-27.2,21.3-32.2,36.6c-5,15.3,0,40.2,0,40.2c-3,3.2-7.3,5.7-10.7,5.9
		c-3.4,0.2-4.3-5-4.3-5v-58.8c0-12.8-19.9-18.3-19.9-18.3l-32,27.7v-43c0-21-20.1-25.4-20.1-25.4h-8.9l-27,23.8
		c18.3,0,19.9,18.8,19.9,18.8v72c0,0-6.9,4.3-11.7,5.9c-4.8,1.6-5.3-9.8-5.3-9.8v-65.4c0,0-19.8-0.4-44.1,0
		c-25.1,0.5-41.6,25.1-44.6,36.8c-3,11.7,0,33.1,0,33.1c-13.5,4.8-15.5-9.4-15.5-9.4v-84.4c0-10.7-17.8-15.3-17.8-15.3H156l-21,19.2
		c-0.7-17.4-17.6-19.2-17.6-19.2h-16.5l-20.3,18.7c0-14.6-20.3-18.7-20.3-18.7H46.5l-26.1,23.8c0,0,7.2-0.8,13.1,4.6
		c5.9,5.3,6.2,12.1,6.2,12.1v95.7h40.4V244.5h5c7.3,0,9.6,9,9.6,9v98.8h39.8V245.4h5.5c7.2,0,9.5,8.2,9.5,8.2v76.2
		c0,0-1.1,13.6,9.9,20.4c11,6.9,22.6,3,22.6,3l25.6-22.9c13.6,23.9,35.1,22.4,35.1,22.4l15.1-14.2c0,0,7,11.7,13,13.6
		c14.5,4.5,19-1.1,19-1.1l20.6-19.4v20.6h36.1v-65.1h6.2c6.2,0,9.3,8.1,9.3,8.1v39.5c0,0-0.6,6.2,8.4,13.9c9,7.6,24.1,5,24.1,5
		l22.3-20c7.3,10.4,31.7,24.4,47.6,20.2c52-13.8,38.7-72.6,38.7-72.6h8.1c3.5,0,3.4,5.7,3.4,5.7v44.8c0,0-0.3,6.8,8.2,16.2
		c6.9,7.6,23.8,5.5,23.8,5.5l19-18.1c6.2,17.4,30.9,18.1,30.9,18.1l19.9-19.4C599.8,335.6,600.3,320.2,600.3,320.2 M257.1,323.4
		c0,0-19.2-3.4-19.2-23.3c0-19.9,19.2-23.3,19.2-23.3V323.4z M467.7,306.4c-2.7,16-14,30.7-14,30.7s-8.2-13.3-5.7-35
		c2.5-21.7,14.4-29.5,14.4-29.5S470.4,290.4,467.7,306.4"/>
	<polygon class="st1" points="143.9,375.4 151.2,396.4 174.7,396.4 155.5,410.8 162.8,433 143.9,419.6 125.3,433 131.7,410.5 
		114,396.4 136.9,396.4 	"/>
	<polygon class="st1" points="231.5,375.4 238.8,396.4 262.3,396.4 243.1,410.8 250.4,433 231.5,419.6 212.9,433 219.3,410.5 
		201.6,396.4 224.5,396.4 	"/>
	<polygon class="st1" points="319.5,375.4 326.8,396.4 350.3,396.4 331.1,410.8 338.4,433 319.5,419.6 300.9,433 307.3,410.5 
		289.6,396.4 312.5,396.4 	"/>
	<polygon class="st1" points="407.3,375.4 414.6,396.4 438,396.4 418.8,410.8 426.2,433 407.3,419.6 388.7,433 395.1,410.5 
		377.4,396.4 400.2,396.4 	"/>
	<polygon class="st1" points="494.6,375.4 501.9,396.4 525.4,396.4 506.2,410.8 513.5,433 494.6,419.6 476,433 482.4,410.5 
		464.7,396.4 487.6,396.4 	"/>
</g>
</svg>
